<svg width="22" height="18" viewBox="0 0 22 18" fill="none" xmlns="http://www.w3.org/2000/svg">
<path d="M18.6148 1.91276C17.2214 1.25418 15.7128 0.776178 14.1413 0.5C14.1137 0.500399 14.0873 0.511853 14.068 0.531867C13.8794 0.882401 13.6594 1.33916 13.5127 1.68969C11.8459 1.43492 10.1508 1.43492 8.48403 1.68969C8.33735 1.32854 8.11735 0.882401 7.91829 0.531867C7.90782 0.510622 7.87639 0.5 7.84496 0.5C6.27349 0.776178 4.77535 1.25418 3.3715 1.91276C3.36103 1.91276 3.35055 1.92338 3.34007 1.934C0.490471 6.25726 -0.295265 10.4637 0.0923649 14.6276C0.0923649 14.6488 0.102841 14.6701 0.123794 14.6807C2.00956 16.0828 3.82199 16.9326 5.61347 17.4956C5.6449 17.5062 5.67633 17.4956 5.6868 17.4744C6.10586 16.8901 6.48302 16.274 6.80779 15.6261C6.82874 15.5836 6.80779 15.5411 6.76588 15.5305C6.16872 15.2968 5.60299 15.0206 5.04774 14.7019C5.00583 14.6807 5.00583 14.617 5.03726 14.5851C5.1525 14.5001 5.26775 14.4045 5.38299 14.3195C5.40394 14.2983 5.43537 14.2983 5.45632 14.3089C9.06023 15.9766 12.947 15.9766 16.509 14.3089C16.53 14.2983 16.5614 14.2983 16.5823 14.3195C16.6976 14.4151 16.8128 14.5001 16.9281 14.5957C16.97 14.6276 16.97 14.6913 16.9176 14.7126C16.3728 15.0419 15.7966 15.3074 15.1994 15.5411C15.1575 15.5517 15.1471 15.6048 15.1575 15.6367C15.4928 16.2847 15.8699 16.9008 16.2785 17.485C16.31 17.4956 16.3414 17.5062 16.3728 17.4956C18.1748 16.9326 19.9872 16.0828 21.873 14.6807C21.8939 14.6701 21.9044 14.6488 21.9044 14.6276C22.3654 9.81571 21.1396 5.64117 18.6567 1.934C18.6462 1.92338 18.6357 1.91276 18.6148 1.91276ZM7.35256 12.0889C6.27349 12.0889 5.37251 11.0798 5.37251 9.83696C5.37251 8.59415 6.25253 7.58504 7.35256 7.58504C8.46307 7.58504 9.34309 8.60478 9.33262 9.83696C9.33262 11.0798 8.45259 12.0889 7.35256 12.0889ZM14.6547 12.0889C13.5756 12.0889 12.6746 11.0798 12.6746 9.83696C12.6746 8.59415 13.5546 7.58504 14.6547 7.58504C15.7652 7.58504 16.6452 8.60478 16.6347 9.83696C16.6347 11.0798 15.7652 12.0889 14.6547 12.0889Z" fill="#E3D8FD"/>
</svg>
