<svg width="22" height="16" viewBox="0 0 22 16" fill="none" xmlns="http://www.w3.org/2000/svg">
<path d="M18.3034 1.37818C16.9344 0.752046 15.4805 0.295716 13.9629 0.0410156C13.7719 0.370006 13.5596 0.815726 13.411 1.16594C11.7969 0.932456 10.1944 0.932456 8.60255 1.16594C8.45397 0.815726 8.2311 0.370006 8.05068 0.0410156C6.52251 0.295716 5.06861 0.752046 3.70915 1.37818C0.960529 5.43213 0.217659 9.39052 0.589099 13.2959C2.41443 14.6225 4.17612 15.429 5.90701 15.9597C6.33151 15.3866 6.71356 14.771 7.04255 14.1237C6.41641 13.8902 5.82211 13.6037 5.24904 13.2641C5.39762 13.158 5.5462 13.0413 5.68416 12.9245C9.1438 14.5058 12.8911 14.5058 16.3082 12.9245C16.4568 13.0413 16.5948 13.158 16.7434 13.2641C16.1703 13.6037 15.576 13.8902 14.9499 14.1237C15.2789 14.771 15.6609 15.3866 16.0854 15.9597C17.8152 15.429 19.5875 14.6225 21.4033 13.2959C21.8596 8.77512 20.6806 4.84849 18.3034 1.37818ZM7.5201 10.8869C6.48007 10.8869 5.63107 9.94242 5.63107 8.78572C5.63107 7.62892 6.45884 6.68442 7.5201 6.68442C8.57071 6.68442 9.4303 7.62892 9.4091 8.78572C9.4091 9.94242 8.57071 10.8869 7.5201 10.8869ZM14.4936 10.8869C13.4535 10.8869 12.6034 9.94242 12.6034 8.78572C12.6034 7.62892 13.4323 6.68442 14.4936 6.68442C15.5442 6.68442 16.4038 7.62892 16.3825 8.78572C16.3825 9.94242 15.5548 10.8869 14.4936 10.8869Z" fill="#0D0C0D"/>
</svg>
